<?xml version="1.0" encoding="utf-8"?>
<!-- Generator: Adobe Illustrator 18.0.0, SVG Export Plug-In . SVG Version: 6.00 Build 0)  -->
<!DOCTYPE svg PUBLIC "-//W3C//DTD SVG 1.1//EN" "http://www.w3.org/Graphics/SVG/1.1/DTD/svg11.dtd">
<svg version="1.1" id="Слой_2" xmlns="http://www.w3.org/2000/svg" xmlns:xlink="http://www.w3.org/1999/xlink" x="0px" y="0px"
	 viewBox="321 -176 1121 1207" enable-background="new 321 -176 1121 1207" xml:space="preserve">
<ellipse fill="#000000"    cx="503.2" cy="450.6" rx="17.3" ry="21.1"/>
<ellipse transform="matrix(0.3407 0.9402 -0.9402 0.3407 903.2239 -113.636)" fill="#000000"    cx="532.6" cy="587.2" rx="18.5" ry="12.1"/>
<ellipse transform="matrix(0.6131 -0.79 0.79 0.6131 -37.5665 531.667)" fill="#000000"    cx="524" cy="304.2" rx="17.3" ry="12.1"/>
<path fill="#000000"    d="M875.5,310.1c3,0.7,6.3,1,9.8,1l0,0l0,0
	c12.9,0,23.4-5,23.4-11.3s-10.5-11.3-23.4-11.3l0,0l0,0c-3.5,0-6.8,0.4-9.8,1c-8,1.8-13.6,5.7-13.6,10.2S867.4,308.3,875.5,310.1z"
	/>
<path fill="#000000"    d="M875.5,474.5c3,1.1,6.3,1.8,9.8,1.8l0,0l0,0
	c12.9,0,23.4-8.7,23.4-19.3c0-10.7-10.5-19.3-23.4-19.3l0,0l0,0c-3.5,0-6.8,0.7-9.8,1.8c-8,3.1-13.6,9.8-13.6,17.6
	C861.9,464.8,867.4,471.4,875.5,474.5z"/>
<path fill="#000000"    d="M885.2,569.3L885.2,569.3L885.2,569.3
	c-3.4,0-6.6,0.6-9.4,1.7c-7.7,2.8-13.1,9-13.1,16.2s5.4,13.4,13.1,16.2c2.9,1.1,6.1,1.7,9.4,1.7l0,0l0,0c12.4,0,22.5-8,22.5-17.9
	C907.8,577.3,897.7,569.3,885.2,569.3z"/>
<path fill="#000000"    d="M1425.8,437.6c-0.4,0-0.9,0.1-1.3,0.2
	c0-40.7-7.9-83.5-31.3-120.2l0,0c4.1-3,2.1-12.7-4.5-21.5s-15.2-13.5-19.3-10.5c-0.5,0.3-0.8,0.8-1.1,1.3
	c-6.7-6.5-14-12.7-22.2-18.5c-68.4-48.5-173.2-52-217.1-48.5c-43.9,3.5-57.7,12.7-84.3,19.6c-26.6,6.9-85.5,2.3-91.2,0
	c-5.8-2.3-10.4-19.6-10.4-19.6s-3.5,0-9,0c35.5-18.6,59.8-55.8,59.8-98.7c0-54.4-39-99.7-90.6-109.5h0.6v-93.2h43.6h0.8v-37h-0.8
	h-43.6v-50.8h-0.8h-42h-0.8v50.8h-43.5H816v37h0.8h43.5v93.2h0.6c-51.8,9.7-90.9,55-90.9,109.4c0,42.9,24.2,80.1,59.8,98.7
	c-5.5,0-9,0-9,0s-4.6,17.3-10.4,19.6c-5.8,2.3-64.7,6.9-91.2,0c-26.6-6.9-40.4-16.2-84.3-19.6c-43.9-3.5-148.7,0-217.1,48.5
	c-8.2,5.8-15.5,12-22.2,18.5c-0.3-0.5-0.7-0.9-1.1-1.3c-4.1-3-12.7,1.7-19.3,10.5s-8.6,18.4-4.5,21.5l0,0
	c-23.4,36.8-31.3,79.5-31.3,120.2c-0.4-0.1-0.9-0.2-1.3-0.2c-5.1,0-9.2,7.6-9.2,17s4.1,17,9.2,17c1,0,2-0.3,2.9-0.9
	c4.1,42,15,78.9,23.1,100.4c-4.2,3-5.3,11.1-2.3,19.5c3.3,9.3,10.4,15.3,15.8,13.4c0.2-0.1,0.3-0.1,0.5-0.2
	c20.6,43.9,42.1,74.3,57.7,114.2c-8.1,3.6-13.8,11.9-13.8,21.6c0,13,10.3,23.6,23,23.6c1.5,0,2.9-0.2,4.4-0.4c1.6,7.3,3,14.9,4.3,23
	c8.5,56.5,8.1,56.6,8.1,56.6l-0.1,1.4h-8.9v20.8h8.1l-1,26.1c-10.7,1-19.2,15.7-19.2,33.7c0,16.5,7.1,30.2,16.5,33.2l-1.3,33.6h-8.3
	v20.8h7.5l-0.2,6h393.5h67.5h393.4l-0.2-6h7.5v-20.8h-8.3l-1.3-33.6c9.4-3,16.5-16.7,16.5-33.2c0-18-8.5-32.7-19.2-33.7l-1-26.1h8.1
	v-20.8h-8.9l-0.1-1.4c0,0-0.4-0.1,8.1-56.6c1.2-8.1,2.7-15.8,4.3-23c1.4,0.3,2.9,0.4,4.4,0.4c12.7,0,23-10.6,23-23.6
	c0-9.7-5.7-18-13.8-21.6c15.6-39.9,37.1-70.3,57.7-114.2c0.2,0.1,0.3,0.2,0.5,0.2c5.4,1.9,12.5-4.1,15.8-13.4
	c2.9-8.3,1.8-16.5-2.3-19.5c8.1-21.5,19-58.4,23.1-100.4c0.9,0.6,1.9,0.9,2.9,0.9c5.1,0,9.2-7.6,9.2-17
	C1435,445.2,1430.9,437.6,1425.8,437.6z M817.4,341.2c5.8-75.1,19.6-117.8,26.6-108.6c3.4,4.6,21.1,4.6,38,3.5
	c16.9,1.1,34.5,1.1,38-3.5c7-9.2,20.8,33.5,26.6,108.6s-10.4,239.1-28.9,299.1c-0.9,2.9-1.8,5.8-2.7,8.5c-0.6-0.7-1.1-1.4-1.7-2.1
	c0.4-1.6,0.3-3-0.7-4.2c-4.5-4.9-11.5-8.5-17.6-10.4c-3.9-1.2-8.3-1.3-12.9-0.7c-4.5-0.6-9-0.5-12.9,0.7c-6.1,1.9-13,5.5-17.6,10.4
	c-1.1,1.2-1.1,2.6-0.7,4.2c-0.6,0.7-1.1,1.4-1.7,2.1c-0.9-2.8-1.8-5.6-2.7-8.5C827.8,580.3,811.6,416.2,817.4,341.2z M525.2,814.7
	c-31.2,8.1-32.3-34.6-32.3-34.6s-0.6-11.4-1-22.3c5.1-4.3,8.3-10.8,8.3-18.1c0-12.8-9.9-23.2-22.3-23.6c-0.4-1-0.7-2-1-3
	c-1.3-5-1.3-9.7-5.2-13.6c-5.2-5.2-9.6-2.6-15.7-2.8c0.5-22.7-16.5-38.8-36-44.9l-0.6,0.8c-8.6-26.4-16-49.3-21.3-60.9
	c-31.2-67-53.4-156.7-20.8-239.1c30.2-76.6,147.8-107.4,147.8-107.4s-33.4,27.8-46.1,44s-34.6,65.8-35.8,119
	c-1.5,70.7,37,174.4,67,221.8c8.1,12.8,16,26,23,39.1c0,7.8,1.8,15.6,3.4,23.1c-4.8-2.3-12.5-4.4-18.1-4.3c-1,4.4,1,8.2,1,12.5
	c-0.1,5.4-2.7,5.4-5,8.9c-4.2,6.6-5.5,14.2-5.4,22.3c0.1,17.1,6.3,31.5,21.5,40.4c-5.7,5-3.5,21.4-0.4,27.6c4.9-2.6,10.1-5.1,15-7.7
	c2-1,4.6-2.7,7.4-4.3C545.5,801,537.1,811.6,525.2,814.7z M588.9,655.2c0.4-5.1-2.2-12.3-6.2-15.8c-5.8-5-9-3.4-12.7,1.9
	c-7.4-2.6-11.4-13-20.5-7.7c-9.1,5.4-5.7,17.7-1.6,25.2c-1.5,0-2.8-0.1-4.1-0.3c-14.3-26.1-31.2-56.2-46.3-87.5
	c-28.9-60.1-42.7-129.4-31.9-206.7s83.9-123.6,123.2-131.7c39.3-8.1,70.5,0,70.5,0s-26.6,13.9-52.9,37
	C580,292.7,560,332,550.8,390.9s11.6,157.1,32,227.5c4.3,14.9,8.1,27.1,11.2,37.6C592.4,655.6,590.8,655.3,588.9,655.2z M770,807.8
	c-28.9-10.4-45.1-46.2-45.1-46.2s0,0-0.1,0c8.5-3.5,14.5-12,14.5-21.9c0-13-10.3-23.6-23-23.6s-23,10.6-23,23.6
	c0,9.7,5.7,18.1,13.9,21.7c-0.5,0.4-0.9,0.8-0.9,1.4c0,4.6-12.7,26.6-28.9,41.6c-16.2,15-58.9,6.9-58.9,6.9s0.3-0.8,0.7-2.2
	c3.2-0.9,6.4-2.2,9.7-3.6c7.3-3,13.1-4.4,12.6-11.5c-0.4-5.4-3.8-11.7-6.8-16c22.2-2.4,39.5-11.9,41.5-37.2
	c0.8-10.7-0.8-22.2-7.8-30.3c-5.9-6.8-18.4-12.9-25.5-5.7c5.4-10.4-2.5-16.4-11.9-18.3c-4.5-26.7-12.3-58.7-24.1-93.5
	c-25.4-75.1-32.3-133.3-21.9-206.7c11.6-82,60.1-145.5,144.4-124.7c27.3,6.7,69.9,0,69.9,0s-2.9,12.7-6.4,25.4
	c-3.5,12.7-3.5,32.3-8.1,80.9s10.4,135.1,18.5,192.9c4,28.8,13.5,64.7,23.3,95.7c-0.5,0.4-0.9,0.8-1.3,1.3
	c-8.3,10.5,0.9,29.4,11.1,34.7c-10.7,1.7-21.6-5.2-31.9-2.4c-10.1,2.8-17.5,11.7-16.3,22.9c-15.4,0.8-27.8,20.9-22.6,34.8
	c5.9,16,18.8,28.1,36.3,27.7c-5.6,2.4-9.9,12.5-7.4,17.1c3.4,6.3,14.5,6.7,20.6,7.2c12.5,1,24.7,2.6,36.2-1.2
	C838.7,816,798.3,818,770,807.8z M1120.7,704.8c-7.1-7.2-19.6-1.2-25.5,5.7c-7,8.2-8.6,19.6-7.8,30.3c2,25.3,19.3,34.8,41.5,37.2
	c-3,4.3-6.3,10.6-6.7,16c-0.5,7.1,5.3,8.5,12.6,11.5c3.3,1.4,6.5,2.7,9.7,3.6c0.5,1.4,0.7,2.2,0.7,2.2s-42.7,8.1-58.9-6.9
	c-16.2-15-28.9-37-28.9-41.6c0-0.6-0.3-1.1-0.9-1.4c8.2-3.6,13.9-12,13.9-21.7c0-13-10.3-23.6-23-23.6c-12.7,0-23,10.6-23,23.6
	c0,10,6,18.5,14.5,21.9c-0.1,0-0.1,0-0.1,0s-16.2,35.8-45.1,46.2c-28.3,10.2-68.7,8.2-81.2-9.3c11.5,3.7,23.7,2.2,36.2,1.2
	c6-0.5,17.1-0.8,20.6-7.2c2.5-4.6-1.9-14.8-7.4-17.1c17.4,0.4,30.3-11.7,36.3-27.7c5.2-13.9-7.2-34-22.6-34.8
	c1.2-11.2-6.2-20.1-16.3-22.9c-10.3-2.8-21.3,4-31.9,2.4c10.2-5.3,19.5-24.2,11.1-34.7c-0.4-0.5-0.9-1-1.3-1.3
	c9.8-31,19.3-66.9,23.3-95.7c8.1-57.7,23.1-144.4,18.5-192.9s-4.6-68.1-8.1-80.9c-3.5-12.7-6.4-25.4-6.4-25.4s42.6,6.7,69.9,0
	c84.3-20.8,132.8,42.7,144.4,124.7c10.3,73.4,3.5,131.7-21.9,206.7c-11.8,34.8-19.6,66.8-24.1,93.5
	C1123.2,688.4,1115.2,694.4,1120.7,704.8z M1193.9,641.3c-3.8-5.3-6.9-6.9-12.7-1.9c-4,3.5-6.6,10.7-6.2,15.8
	c-1.9,0.2-3.5,0.4-5,0.8c3.2-10.5,6.9-22.7,11.2-37.6c20.5-70.4,41.3-168.6,32-227.5c-9.2-58.9-29.3-98.2-55.6-121.3
	c-26.3-23.1-52.9-37-52.9-37s31.2-8.1,70.5,0c39.3,8.1,112.3,54.3,123.1,131.7s-3,146.7-31.9,206.7c-15.1,31.4-32,61.5-46.3,87.5
	c-1.3,0.2-2.6,0.4-4.1,0.3c4.1-7.5,7.5-19.9-1.6-25.2C1205.3,628.3,1201.3,638.7,1193.9,641.3z M1365.7,591.8
	c-5.4,11.5-12.8,34.4-21.3,60.9l-0.6-0.8c-19.5,6-36.5,22.1-36,44.9c-6.1,0.2-10.5-2.4-15.7,2.8c-3.9,3.8-3.9,8.6-5.2,13.6
	c-0.3,1-0.6,2-1,3c-12.4,0.4-22.3,10.8-22.3,23.6c0,7.3,3.2,13.8,8.3,18.1c-0.3,10.9-1,22.3-1,22.3s-1.2,42.7-32.3,34.6
	c-11.9-3.1-20.3-13.7-27.3-27.2c2.8,1.6,5.4,3.3,7.4,4.3c5,2.6,10.2,5,15,7.7c3.1-6.1,5.2-22.6-0.4-27.6
	c15.1-8.9,21.4-23.3,21.5-40.4c0-8.1-1.2-15.7-5.4-22.3c-2.2-3.5-4.9-3.5-5-8.9c-0.1-4.3,2-8.2,1-12.5c-5.6-0.1-13.3,2.1-18.1,4.3
	c1.5-7.5,3.3-15.4,3.4-23.1c7-13.1,14.9-26.3,23-39.1c30-47.4,68.5-151.1,67-221.8c-1.2-53.1-23.1-102.8-35.8-119
	c-12.7-16.2-46.2-43.9-46.2-43.9s117.6,30.9,147.8,107.4C1419,435.1,1396.9,524.8,1365.7,591.8z"/>
<ellipse fill="#000000"    cx="1260.6" cy="450.6" rx="17.3" ry="21.1"/>
<ellipse transform="matrix(0.3407 -0.9402 0.9402 0.3407 259.5817 1544.6234)" fill="#000000"    cx="1231.1" cy="587.2" rx="18.5" ry="12.1"/>
<ellipse transform="matrix(-0.6131 -0.79 0.79 -0.6131 1759.5924 1470.1589)" fill="#000000"    cx="1239.8" cy="304.2" rx="17.3" ry="12.1"/>
</svg>
